<svg viewBox="0 0 512 512" xmlns="http://www.w3.org/2000/svg"><path d="m285.359375 130.660156h-68.6875v-40h59.949219l-.359375.609375c-2.839844 3.800781-3.472657 8.808594-1.660157 13.199219l9.320313 22.679688zm0 0" fill="#f7f7f7"/><path d="m291.148438 144.570312c.652343-.0625 1.300781-.101562 1.960937-.101562-.660156 0-1.308594.03125-1.960937.101562zm-17.167969 19.027344c0-5.277344 2.140625-10.070312 5.597656-13.527344.871094-.871093 1.8125-1.652343 2.832031-2.332031.210938-.140625.417969-.277343.628906-.410156.089844-.058594.191407-.117187.28125-.160156.167969-.109375.339844-.207031.519532-.308594.070312-.039063.148437-.082031.230468-.121094.46875-.257812.960938-.5 1.460938-.710937.117188-.046875.238281-.097656.367188-.148438.171874-.078125.339843-.140625.511718-.199218.167969-.0625.339844-.121094.511719-.179688.027344-.019531.058594-.03125.097656-.03125.171875-.058594.339844-.121094.519531-.167969.171876-.0625.339844-.113281.519532-.152343.152344-.050782.3125-.089844.460937-.121094.460938-.117188.929688-.21875 1.402344-.289063.167969-.027343.347656-.058593.519531-.078125h.007813c.179687-.042968.378906-.0625.570312-.070312.03125-.011719.050781-.011719.070313-.011719l-5.730469-13.917969h-68.6875v180h76.4375v-127.921875c-10.570313 0-19.128906-8.570312-19.128906-19.140625zm175.339843-32.9375h-71.761718l-5.757813 13.929688c2.1875.238281 4.257813.859375 6.160157 1.777344.257812.121093.507812.25.757812.390624 1.109375.589844 2.140625 1.292969 3.089844 2.082032.210937.167968.421875.347656.621094.527344.300781.261718.582031.542968.851562.820312.25.25.488281.511719.71875.773438.019531.007812.03125.027343.03125.039062.207031.21875.398438.449219.589844.6875.050781.070312.109375.140625.160156.210938.148438.191406.289062.378906.429688.570312.070312.101562.140624.191406.199218.289062.179688.261719.351563.519532.511719.792969.148437.238281.296875.488281.4375.738281s.269531.5.402344.761719c.066406.128907.128906.257813.1875.386719.070312.132812.128906.261719.179687.390625.109375.242187.210938.480469.3125.730469.238282.601562.449219 1.21875.617188 1.851562.0625.179688.113281.359375.152344.550782.070312.269531.128906.539062.1875.808593.0625.300781.121093.609375.160156.917969.03125.191406.0625.382812.070312.582031.03125.167969.050782.339844.0625.507813.027344.300781.046875.601562.070313.910156.007812.300781.019531.601562.019531.910156 0 5.28125-2.140625 10.070313-5.609375 13.53125-3.460937 3.46875-8.242187 5.609375-13.523437 5.609375v127.921875h79.671874c6.121094 0 11.089844-4.960937 11.089844-11.082031v-157.839844c0-6.121093-4.96875-11.078125-11.089844-11.078125zm0 0" fill="#ffa3bf"/><path d="m386.679688 91.359375-.410157-.699219-44.148437-74.550781c-5.390625-7.179687-16.152344-7.171875-21.519532.007813l-43.980468 74.542968-.359375.609375c-2.839844 3.800781-3.472657 8.808594-1.660157 13.199219l9.320313 22.679688 1.4375 3.511718 5.730469 13.917969c.019531-.007813.039062-.007813.058594-.007813.652343-.070312 1.300781-.101562 1.960937-.101562h76.539063c.363281 0 .722656.011719 1.082031.03125s.71875.050781 1.070312.089844l5.757813-13.929688 2.269531-5.5 8.5-20.53125c1.84375-4.398437 1.210937-9.449218-1.648437-13.269531zm-36.449219-.699219c-1.671875 8.847656-9.441407 15.539063-18.769531 15.539063-9.332032 0-17.109376-6.691407-18.78125-15.539063-.21875-1.160156-.339844-2.351562-.339844-3.582031 0-10.527344 8.53125-19.078125 19.058594-19.109375h.0625c10.550781 0 19.109374 8.558594 19.109374 19.109375 0 1.230469-.121093 2.421875-.339843 3.582031zm0 0" fill="#f7f7f7"/><path d="m350.570312 87.078125c0 1.230469-.121093 2.421875-.339843 3.582031-1.671875 8.847656-9.441407 15.539063-18.769531 15.539063-9.332032 0-17.109376-6.691407-18.78125-15.539063-.21875-1.160156-.339844-2.351562-.339844-3.582031 0-10.527344 8.53125-19.078125 19.058594-19.109375h.0625c10.550781 0 19.109374 8.558594 19.109374 19.109375zm0 0" fill="#97b6bf"/><path d="m203.308594 48.980469h-49.578125l15.78125-33.269531c3.628906-7.621094 14.476562-7.613282 18.089843.019531zm0 0" fill="#262e30"/><path d="m216.671875 83.929688v6.730468h-76.382813v-6.640625c0-4.640625 1.070313-9.21875 3.171876-13.371093l10.269531-21.667969h49.578125l10.28125 21.738281c2.019531 4.109375 3.082031 8.628906 3.082031 13.210938zm0 0" fill="#fee4bb"/><path d="m502 122.738281v227.921875h-492v-227.921875c0-17.71875 14.359375-32.078125 32.078125-32.078125h98.210937v40h-77.949218c-6.121094 0-11.089844 4.957032-11.089844 11.078125v157.839844c0 6.121094 4.96875 11.082031 11.089844 11.082031h386.980468c6.121094 0 11.089844-4.960937 11.089844-11.082031v-157.839844c0-6.121093-4.96875-11.078125-11.089844-11.078125h-71.761718l2.269531-5.5 8.5-20.53125c1.84375-4.398437 1.210937-9.449218-1.648437-13.269531l-.410157-.699219h83.640625c17.71875 0 32.089844 14.359375 32.089844 32.078125zm0 0" fill="#f7f7f7"/><path d="m178.261719 90.660156h38.410156v220h-38.410156zm0 0" fill="#fade76"/><path d="m140.289062 90.660156h37.972657v220h-37.972657zm0 0" fill="#ffc954"/><path d="m345.328125 501.660156h-179l12.261719-91h154.480468zm0 0" fill="#707c96"/><path d="m502 350.660156v27.917969c0 17.722656-14.371094 32.082031-32.089844 32.082031h-427.832031c-17.71875 0-32.078125-14.359375-32.078125-32.082031v-27.917969zm0 0" fill="#c2cee9"/><path d="m293.109375 182.738281h76.539063v127.921875h-76.539063zm0 0" fill="#4c5b7c"/><path d="m140.289062 130.660156v180h-77.949218c-6.121094 0-11.089844-4.960937-11.089844-11.082031v-157.839844c0-6.121093 4.96875-11.078125 11.089844-11.078125zm0 0" fill="#ffa3bf"/><path d="m388.78125 163.597656c0 5.28125-2.140625 10.070313-5.609375 13.53125-3.460937 3.46875-8.242187 5.609375-13.523437 5.609375h-76.539063c-10.570313 0-19.128906-8.570312-19.128906-19.140625 0-5.277344 2.140625-10.070312 5.597656-13.527344.871094-.871093 1.8125-1.652343 2.832031-2.332031.210938-.140625.417969-.277343.628906-.410156.089844-.058594.191407-.117187.28125-.160156.167969-.109375.339844-.207031.519532-.308594.070312-.039063.148437-.082031.230468-.121094.46875-.257812.960938-.5 1.460938-.710937.117188-.046875.238281-.097656.367188-.148438.171874-.078125.339843-.140625.511718-.199218.167969-.0625.339844-.121094.511719-.179688.027344-.019531.058594-.03125.097656-.03125.171875-.058594.339844-.121094.519531-.167969.171876-.0625.339844-.113281.519532-.152343.152344-.050782.3125-.089844.460937-.121094.460938-.117188.929688-.21875 1.402344-.289063.167969-.027343.347656-.058593.519531-.078125h.007813c.191406-.03125.378906-.0625.570312-.070312.03125-.011719.050781-.011719.070313-.011719.019531-.007813.039062-.007813.058594-.007813.652343-.0625 1.300781-.101562 1.960937-.101562h76.539063c.363281 0 .722656.011719 1.082031.03125s.71875.050781 1.070312.089844c2.1875.238281 4.257813.859375 6.160157 1.777344.257812.121093.507812.25.757812.390624 1.109375.589844 2.140625 1.292969 3.089844 2.082032.210937.167968.421875.347656.621094.527344.300781.261718.582031.542968.851562.820312.25.25.488281.511719.71875.773438.019531.007812.03125.027343.03125.039062.207031.21875.398438.449219.589844.6875.050781.070312.109375.140625.160156.210938.148438.191406.289062.378906.429688.570312.070312.101562.140624.191406.199218.289062.179688.261719.351563.519532.511719.792969.148437.238281.296875.488281.4375.738281s.269531.5.402344.761719c.066406.128907.128906.257813.1875.386719.070312.132812.128906.261719.179687.390625.109375.242187.210938.480469.3125.730469.238282.601562.449219 1.21875.617188 1.851562.0625.179688.113281.359375.152344.550782.070312.269531.128906.539062.1875.808593.0625.308594.113281.609375.160156.917969.03125.191406.0625.382812.070312.582031.03125.167969.050782.339844.0625.507813.027344.300781.046875.601562.070313.910156.007812.300781.019531.601562.019531.910156zm0 0" fill="#4c5b7c"/><path d="m265.058594 376.519531c-.25-.601562-.558594-1.179687-.917969-1.730469-.359375-.539062-.78125-1.058593-1.242187-1.519531-.457032-.460937-.96875-.878906-1.519532-1.242187-.539062-.359375-1.117187-.667969-1.730468-.917969-.597657-.25-1.226563-.441406-1.867188-.570313-1.28125-.261718-2.609375-.261718-3.898438 0-.640624.128907-1.273437.320313-1.871093.570313-.609375.25-1.191407.558594-1.730469.917969-.550781.363281-1.058594.78125-1.519531 1.242187-.460938.460938-.878907.980469-1.242188 1.519531-.359375.550782-.667969 1.128907-.917969 1.730469-.25.597657-.449218 1.230469-.570312 1.871094-.128906.648437-.199219 1.296875-.199219 1.957031 0 2.632813 1.070313 5.210938 2.929688 7.070313.460937.460937.96875.871093 1.519531 1.242187.539062.359375 1.121094.667969 1.730469.917969.597656.25 1.230469.441406 1.871093.570313.636719.128906 1.296876.191406 1.949219.191406.648438 0 1.308594-.0625 1.949219-.191406.640625-.128907 1.269531-.320313 1.867188-.570313.613281-.25 1.191406-.558594 1.730468-.917969.550782-.371094 1.0625-.78125 1.519532-1.242187 1.863281-1.867188 2.933593-4.4375 2.933593-7.070313 0-.660156-.070312-1.308594-.199219-1.957031-.121093-.640625-.324218-1.273437-.574218-1.871094zm0 0"/><path d="m469.910156 80.660156h-77.941406l-41.246094-69.648437c-.183594-.3125-.386718-.613281-.605468-.90625-4.464844-5.949219-11.28125-9.363281-18.710938-9.375 0 0-.003906 0-.007812 0-.011719 0-.027344 0-.039063 0-.003906 0-.011719 0-.019531 0-7.449219.003906-14.285156 3.429687-18.746094 9.398437-.21875.292969-.421875.59375-.605469.910156l-41.078125 69.621094h-44.394531c-.410156-4.9375-1.734375-9.816406-3.914063-14.277344l-25.960937-54.929687c-3.335937-7.054687-10.257813-11.4414062-18.0625-11.453125-.007813 0-.015625 0-.027344 0-7.792969 0-14.714843 4.371094-18.074219 11.425781l-26 54.832031c-2.242187 4.464844-3.601562 9.386719-4.027343 14.398438h-88.371094c-23.199219.003906-42.078125 18.878906-42.078125 42.082031v255.839844c0 23.203125 18.878906 42.082031 42.078125 42.082031h125.070313l-9.5625 71h-21.757813c-5.519531 0-10 4.476563-10 10 0 5.523438 4.480469 10 10 10h240c5.523437 0 10-4.476562 10-10 0-5.523437-4.476563-10-10-10h-21.753906l-9.566407-71h125.402344c23.207032 0 42.089844-18.878906 42.089844-42.082031v-255.839844c0-23.203125-18.882812-42.078125-42.089844-42.078125zm-19.5 218.917969c0 .597656-.488281 1.082031-1.089844 1.082031h-69.671874v-109.675781c3.941406-1.433594 7.542968-3.726563 10.582031-6.773437 5.511719-5.496094 8.550781-12.816407 8.550781-20.613282 0-9.300781-4.386719-17.601562-11.195312-22.9375h61.734374c.601563 0 1.089844.484375 1.089844 1.078125zm-147.300781 1.082031v-107.921875h56.539063v107.921875zm-76.4375 0v-160h48.488281c-.921875.722656-1.808594 1.496094-2.652344 2.335938-5.5 5.5-8.527343 12.816406-8.527343 20.601562 0 12.554688 7.980469 23.28125 19.128906 27.371094v109.691406zm-38.410156 0v-90c0-5.523437-4.480469-10-10-10-5.523438 0-10 4.476563-10 10v90h-17.972657v-200h17.972657v30c0 5.523438 4.476562 10 10 10 5.519531 0 10-4.476562 10-10v-30h18.410156v200zm-125.921875 0c-.601563 0-1.089844-.484375-1.089844-1.082031v-157.839844c0-.59375.488281-1.078125 1.089844-1.078125h67.949218v160zm307.308594-146.191406c5.035156 0 9.132812 4.097656 9.132812 9.128906 0 2.441406-.949219 4.730469-2.691406 6.46875-1.71875 1.722656-4.003906 2.671875-6.4375 2.671875h-76.542969c-5.03125 0-9.128906-4.097656-9.128906-9.140625 0-2.441406.949219-4.734375 2.671875-6.457031s4.015625-2.671875 6.457031-2.671875zm-104.296876-46.199219 5.089844 12.390625h-43.769531v-20h36.96875c.140625 2.585938.699219 5.160156 1.710937 7.609375zm-60.800781-33.277343c.019531.046874.042969.09375.066407.140624.855468 1.742188 1.457031 3.613282 1.777343 5.527344h-55.816406c.328125-1.921875.9375-3.78125 1.804687-5.496094.039063-.078124.078126-.152343.113282-.230468l7.566406-15.957032h36.917969zm126.910157 2.976562c5.023437 0 9.109374 4.085938 9.109374 9.109375 0 .285156-.011718.570313-.042968.855469-.023438.285156-.066406.570312-.121094.863281-.003906.003906-.003906.003906-.003906.007813-.808594 4.285156-4.566406 7.394531-8.941406 7.394531-4.382813 0-8.148438-3.109375-8.957032-7.402344-.109375-.585937-.164062-1.148437-.164062-1.71875 0-5.007813 4.078125-9.09375 9.121094-9.109375zm-10.0625-43.527344v25.320313c-11.109376 4.105469-19.058594 14.8125-19.058594 27.316406 0 1.808594.171875 3.640625.511718 5.433594 2.589844 13.726562 14.621094 23.6875 28.609376 23.6875 2.183593 0 4.320312-.242188 6.378906-.707031 11.128906-2.5 20.03125-11.398438 22.214844-22.972657.34375-1.800781.515624-3.632812.515624-5.441406 0-12.546875-7.976562-23.261719-19.171874-27.34375v-25.214844l36.242187 61.195313.410156.699218c.191407.324219.398438.636719.625.9375.734375.984376.898438 2.292969.414063 3.453126l-10.769532 26.03125v.003906l-3.15625 7.628906h-67.425781l-3.125-7.601562c0-.003907 0-.003907-.003906-.007813l-.019531-.046875c-.007813-.027344-.019532-.050781-.027344-.074219l-10.71875-26.082031c-.460938-1.125-.300781-2.429688.425781-3.402344.214844-.289062.417969-.589844.601563-.898437l.359375-.609375c0-.003906 0-.003906.003906-.007813zm-142.847657-14.441406c.003907 0 .007813 0 .007813.003906l8.96875 18.972656h-17.976563l8.996094-18.976562zm-158.550781 102.738281c0-12.175781 9.90625-22.078125 22.078125-22.078125h88.210937v20h-67.949218c-11.628906 0-21.089844 9.457032-21.089844 21.078125v157.839844c0 11.277344 8.914062 20.488281 20.066406 21.027344.335938.035156.675782.054687 1.023438.054687h386.980468c.34375 0 .6875-.019531 1.023438-.054687 11.152344-.539063 20.066406-9.75 20.066406-21.027344v-157.839844c0-11.625-9.460937-21.078125-21.089844-21.078125h-56.800781l5.035157-12.171875c1.054687-2.519531 1.628906-5.167969 1.761718-7.828125h70.59375c12.183594 0 22.089844 9.902344 22.089844 22.078125v217.921875h-472zm313.894531 368.921875h-156.125l9.5625-71h136.996094zm136.015625-91h-427.832031c-12.171875 0-22.078125-9.90625-22.078125-22.082031v-17.917969h472v17.917969c0 12.175781-9.910156 22.082031-22.089844 22.082031zm0 0"/><path d="m187.660156 166.5c-.25-.601562-.558594-1.179688-.921875-1.722656-.359375-.546875-.777343-1.058594-1.238281-1.519532-2.320312-2.328124-5.78125-3.390624-9.03125-2.738281-.640625.128907-1.257812.320313-1.867188.570313-.601562.25-1.179687.558594-1.722656.917968-.550781.371094-1.058594.792969-1.519531 1.25-.460937.460938-.878906.972657-1.25 1.519532-.359375.542968-.667969 1.121094-.917969 1.722656-.25.609375-.441406 1.230469-.570312 1.867188-.132813.652343-.191406 1.3125-.191406 1.960937 0 .652344.058593 1.3125.191406 1.949219.128906.640625.320312 1.273437.570312 1.871094.25.609374.558594 1.191406.917969 1.730468.371094.550782.789063 1.058594 1.25 1.519532.460937.460937.96875.878906 1.519531 1.242187.542969.359375 1.121094.667969 1.722656.917969.609376.25 1.238282.441406 1.867188.570312.652344.128906 1.3125.199219 1.960938.199219 2.628906 0 5.210937-1.070313 7.070312-2.929687.460938-.460938.878906-.96875 1.238281-1.519532.363281-.539062.671875-1.121094.921875-1.730468.25-.597657.441406-1.230469.570313-1.871094.128906-.636719.199219-1.296875.199219-1.949219 0-.648437-.070313-1.308594-.199219-1.960937-.128907-.636719-.320313-1.257813-.570313-1.867188zm0 0"/></svg>